<svg width="290" height="190" viewBox="0 0 290 190" fill="none" xmlns="http://www.w3.org/2000/svg">
<path d="M6.07682 62.1927C-5.69243 96.1507 -0.449036 128.658 22.5302 156.561C40.3502 178.199 55.6925 189.146 82.9354 190V165.436C75.7115 164.515 71.0815 162.562 64.6902 159.661C39.781 148.358 28.5881 123.953 28.5881 94.8175C28.5881 76.535 35.5938 59.8546 46.8332 47.1645C53.8216 39.2721 60.0319 35.4384 68.9604 29.6154C74.969 27.0379 76.2161 25.4138 82.9354 24.556V0C77.3094 0.290131 83.0037 -0.034134 77.1926 1.10537C42.1961 7.98442 17.7199 28.6006 6.07261 62.1969L6.07682 62.1927Z" fill="black"/>
<path d="M283.859 62.1927C295.628 96.1507 290.385 128.658 267.405 156.561C249.585 178.199 234.243 189.146 207 190V165.436C214.224 164.515 218.854 162.562 225.245 159.661C250.155 148.358 261.347 123.953 261.347 94.8175C261.347 76.535 254.342 59.8546 243.102 47.1645C236.114 39.2721 229.904 35.4384 220.975 29.6154C214.967 27.0379 213.719 25.4138 207 24.556V0C212.626 0.290131 206.932 -0.034134 212.743 1.10537C247.739 7.98442 272.216 28.6006 283.863 62.1969L283.859 62.1927Z" fill="black"/>
<path d="M191.516 146.824C190.955 146.202 190.161 145.801 189.27 145.752C189.179 145.737 189.095 145.716 188.998 145.704C188.473 145.635 187.89 145.605 187.244 145.608C169.067 145.746 150.887 145.71 132.707 145.632C123.943 145.592 119.544 141.227 119.423 132.499C119.312 124.357 119.39 116.212 119.411 108.067C119.436 99.1761 123.901 94.8167 132.939 94.8167C147.406 94.8137 161.876 94.8076 176.343 94.7986H185.587C187.395 94.7986 188.862 93.3314 188.862 91.523V79.9966C188.862 78.1883 187.395 76.7211 185.587 76.7211H184.551C184.126 76.6879 183.67 76.6728 183.175 76.6788C181.309 76.6999 179.443 76.706 177.578 76.7211H171.603C171.44 76.7211 171.283 76.7452 171.126 76.7694C158.709 76.8207 146.289 76.7543 133.872 76.7633C123.641 76.7694 119.475 72.721 119.396 62.6316C119.381 60.7417 119.384 58.8489 119.396 56.959C119.451 47.6727 123.731 43.416 133.072 43.416C148.487 43.413 163.905 43.4341 179.319 43.4431C181.91 43.4431 183.984 43.4431 185.647 43.3435H188.956C188.956 43.3435 188.98 43.3405 188.995 43.3405C190.785 43.3194 192.232 41.8642 192.232 40.071V28.5899C191.948 26.6306 191.051 25.6223 188.995 25.3173C188.962 25.3113 188.929 25.3083 188.896 25.3022H101.367C98.7285 25.7189 97.9979 27.2857 98.0221 30.5673C98.1881 51.9445 98.1006 73.3247 98.1006 94.702H98.0855C98.0855 116.227 98.1217 137.749 98.0402 159.274C98.0311 162.028 98.4538 163.73 101.729 163.727C126.038 163.7 150.344 163.721 174.652 163.767C174.803 163.788 174.954 163.812 175.111 163.812H189.095C190.903 163.812 192.37 162.345 192.37 160.536V149.01C192.37 148.189 192.056 147.449 191.558 146.873C191.543 146.857 191.531 146.839 191.519 146.824H191.516ZM192.235 158.565C192.25 158.942 192.259 159.32 192.277 159.697C192.298 160.135 192.277 160.521 192.235 160.877V158.565Z" fill="black"/>
</svg>
