<svg width="289" height="190" viewBox="0 0 289 190" fill="none" xmlns="http://www.w3.org/2000/svg">
<path d="M6.04573 61.8746C-5.66331 95.6589 -0.446739 128 22.415 155.76C40.1438 177.287 55.4076 188.179 82.5111 189.028V164.589C75.3242 163.673 70.7179 161.731 64.3593 158.844C39.5775 147.599 28.4418 123.319 28.4418 94.3325C28.4418 76.1435 35.4117 59.5484 46.5937 46.9233C53.5463 39.0712 59.7248 35.2571 68.6076 29.464C74.5855 26.8996 75.8262 25.2838 82.5111 24.4304V0C76.9139 0.288647 82.5791 -0.0339594 76.7978 1.09971C41.9802 7.94358 17.6293 28.4543 6.04154 61.8788L6.04573 61.8746Z" fill="white"/>
<path d="M282.405 61.8746C294.114 95.6589 288.898 128 266.036 155.76C248.307 177.287 233.044 188.179 205.94 189.028V164.589C213.127 163.673 217.733 161.731 224.092 158.844C248.874 147.599 260.009 123.319 260.009 94.3325C260.009 76.1435 253.039 59.5484 241.857 46.9233C234.905 39.0712 228.726 35.2571 219.844 29.464C213.866 26.8996 212.625 25.2838 205.94 24.4304V0C211.537 0.288647 205.872 -0.0339594 211.653 1.09971C246.471 7.94358 270.822 28.4543 282.41 61.8788L282.405 61.8746Z" fill="white"/>
<path d="M190.536 146.372C189.977 145.754 189.187 145.354 188.301 145.306C188.211 145.291 188.127 145.27 188.031 145.258C187.508 145.189 186.929 145.159 186.286 145.162C168.202 145.3 150.115 145.264 132.027 145.186C123.308 145.147 118.932 140.804 118.812 132.121C118.701 124.02 118.779 115.917 118.8 107.813C118.824 98.9679 123.266 94.6308 132.259 94.6308C146.652 94.6278 161.047 94.6218 175.44 94.6128H184.637C186.436 94.6128 187.896 93.1531 187.896 91.354V79.8865C187.896 78.0874 186.436 76.6277 184.637 76.6277H183.607C183.183 76.5947 182.73 76.5797 182.237 76.5857C180.381 76.6067 178.525 76.6127 176.669 76.6277H170.725C170.563 76.6277 170.406 76.6518 170.25 76.6758C157.897 76.7268 145.54 76.6608 133.187 76.6698C123.008 76.6758 118.863 72.6481 118.785 62.6103C118.77 60.7301 118.773 58.8469 118.785 56.9667C118.839 47.7279 123.098 43.493 132.391 43.493C147.727 43.49 163.066 43.511 178.402 43.52C180.979 43.52 183.042 43.52 184.697 43.4209H187.989C187.989 43.4209 188.013 43.4179 188.028 43.4179C189.809 43.3969 191.248 41.9492 191.248 40.1651V28.7427C190.965 26.7935 190.073 25.7903 188.028 25.4869C187.995 25.4809 187.962 25.4779 187.929 25.4719H100.848C98.2229 25.8864 97.4961 27.4452 97.5201 30.71C97.6853 51.9779 97.5982 73.2488 97.5982 94.5166H97.5832C97.5832 115.932 97.6192 137.344 97.5381 158.759C97.5291 161.498 97.9496 163.192 101.208 163.189C125.393 163.162 149.574 163.183 173.758 163.228C173.908 163.249 174.059 163.273 174.215 163.273H188.127C189.926 163.273 191.386 161.813 191.386 160.014V148.547C191.386 147.73 191.073 146.994 190.578 146.42C190.563 146.405 190.551 146.387 190.539 146.372H190.536ZM191.251 158.053C191.266 158.428 191.275 158.804 191.293 159.179C191.314 159.615 191.293 159.999 191.251 160.354V158.053Z" fill="white"/>
</svg>
